<svg width="71" height="60" viewBox="0 0 71 60" fill="none" xmlns="http://www.w3.org/2000/svg">
<g filter="url(#filter0_d)">
<path d="M56.6603 28.8716C55.6734 28.8034 54.6866 28.8326 53.7046 28.8034C52.2244 28.7644 50.7441 28.7936 49.2687 28.8375C48.5189 28.857 47.7691 28.8521 47.0193 28.974C46.5791 29.0472 46.1196 28.9838 45.6697 29.0472C45.036 29.1349 44.3975 29.1398 43.7589 29.2032C43.2268 29.2568 42.6947 29.3104 42.1578 29.3348C41.7369 29.3543 41.3257 29.4518 40.9049 29.4762C40.4985 29.5006 40.097 29.5786 39.6907 29.6322C39.0522 29.7151 38.4088 29.7931 37.7702 29.8808C37.1849 29.9588 36.6044 30.0466 36.0239 30.1539C35.279 30.2904 34.5244 30.3976 33.7746 30.5146C32.9232 30.6511 32.0815 30.8462 31.2301 30.9827C30.7754 31.0558 30.3207 31.1631 29.8659 31.2606C29.2323 31.3922 28.5986 31.5287 27.9649 31.6603C27.8246 31.6896 27.7327 31.7432 27.6649 31.8895C26.9248 33.4301 26.2766 35.0048 25.7638 36.6332C25.4446 37.6473 25.1737 38.6809 25.0818 39.7437C25.0527 40.085 25.0479 40.4262 25.3817 40.6651C25.5075 40.7529 25.4591 40.8748 25.3478 40.9528C25.193 41.06 25.0237 41.1185 24.8302 41.0893C23.6886 40.9235 23.0162 40.1825 22.7888 39.1391C22.5518 38.0568 22.8082 36.9989 23.0936 35.9604C23.379 34.9171 23.7273 33.8884 24.1482 32.8889C24.182 32.8109 24.1965 32.7232 24.2207 32.6452C23.9885 32.5428 23.795 32.6695 23.5919 32.7232C22.4067 33.0401 21.2215 33.357 20.046 33.708C18.1837 34.2687 16.3406 34.883 14.5266 35.5801C13.3076 36.0482 12.0982 36.5503 10.9372 37.15C9.84399 37.7155 8.75558 38.3006 7.88969 39.2172C7.68168 39.4365 7.51721 39.6901 7.42046 39.9777C7.35274 40.1825 7.35274 40.397 7.44948 40.6018C7.49786 40.6993 7.62847 40.8016 7.52205 40.9138C7.41079 41.0308 7.23664 41.1088 7.07701 41.0795C6.04664 40.8943 5.02112 39.9485 4.85181 38.8515C4.77441 38.3347 5.03079 37.8667 5.35006 37.4474C5.95473 36.6673 6.76258 36.1457 7.59944 35.6728C9.81013 34.4247 12.195 33.6056 14.5991 32.8402C16.4906 32.2405 18.4013 31.7237 20.3315 31.2508C21.8746 30.8754 23.4177 30.5146 24.9754 30.2172C25.2608 30.1636 25.4397 30.0222 25.5703 29.7443C26.3298 28.1598 27.1764 26.6192 28.0616 25.103C28.9323 23.6014 29.8514 22.1339 30.7851 20.6713C31.7767 19.116 32.8168 17.5998 33.881 16.0933C34.921 14.621 35.9852 13.1632 37.122 11.7591C37.9541 10.7304 38.8345 9.73585 39.7923 8.82416C40.0245 8.60477 40.247 8.35612 40.6291 8.39025C40.8904 8.41462 41.0935 8.52676 41.2774 8.67789C41.7224 9.04842 42.0513 9.5067 42.2739 10.0479C42.3561 10.2526 42.3271 10.3599 42.1626 10.5354C41.5966 11.1302 41.0645 11.7591 40.5372 12.3929C39.623 13.4948 38.7474 14.6307 37.9492 15.8203C37.8912 15.9032 37.8089 15.9812 37.7993 16.0933C37.867 16.1616 37.9057 16.0933 37.9396 16.0592C38.9119 15.0792 39.9519 14.1822 41.021 13.3046C42.8108 11.8371 44.6829 10.4964 46.7339 9.4287C47.1983 9.18493 47.6966 9.00454 48.1997 8.84853C48.9349 8.61939 49.5396 8.7559 50.0524 9.33607C50.333 9.65297 50.6087 9.97962 50.8651 10.3209C51.2521 10.8523 51.1263 11.4081 50.9666 11.959C50.5458 13.3924 49.7621 14.6405 48.9253 15.8544C48.1223 17.0245 47.1983 18.0971 46.2067 19.1014C45.3504 19.9692 44.4362 20.7785 43.4397 21.4855C42.4141 22.2119 41.3402 22.8506 40.1212 23.187C38.7087 23.5721 37.3687 23.4844 36.2078 22.4849C35.8401 22.168 35.6321 21.7439 35.5354 21.2661C35.5063 21.1198 35.5402 20.9736 35.637 20.8565C35.7144 20.7639 35.8063 20.681 35.932 20.7005C36.082 20.7249 36.0336 20.8614 36.053 20.9589C36.1207 21.3538 36.2852 21.6951 36.5948 21.9584C36.8463 22.1729 37.1414 22.1729 37.4461 22.1193C38.2153 21.973 38.8732 21.5781 39.5069 21.1442C40.6146 20.3788 41.5821 19.4524 42.5061 18.4725C43.4735 17.4487 44.3781 16.3712 45.2343 15.2499C46.0422 14.1919 46.7968 13.095 47.4692 11.9444C47.6966 11.5544 47.9142 11.1546 48.0352 10.7109C48.069 10.5842 48.1126 10.4428 48.0352 10.355C47.9481 10.2624 47.8175 10.3696 47.7208 10.4135C46.6517 10.8572 45.6697 11.4666 44.6877 12.0711C43.5993 12.7439 42.5448 13.4655 41.5192 14.2309C40.3824 15.0792 39.2795 15.9763 38.225 16.927C37.5235 17.5559 36.8463 18.2043 36.1884 18.882C35.0081 20.1009 33.9584 21.427 32.9764 22.8116C31.5203 24.8641 30.2191 27.019 29.0049 29.2275C28.9759 29.2812 28.913 29.3397 28.9662 29.4079C29.0194 29.4811 29.0871 29.4226 29.15 29.4128C30.577 29.1934 31.9992 28.9643 33.4311 28.7693C34.3841 28.6376 35.3467 28.5547 36.3045 28.4621C37.48 28.3451 38.6603 28.233 39.8406 28.1257C40.3873 28.077 40.9339 28.0331 41.4854 28.0038C43.5267 27.8966 45.573 27.7991 47.6143 27.7016C47.653 27.7454 47.6917 27.7454 47.7304 27.7016C48.6592 27.6869 49.588 27.6528 50.5119 27.6577C51.8471 27.6625 53.1822 27.6674 54.5125 27.7162C55.7847 27.7649 57.0521 27.8527 58.3195 27.9502C59.374 28.0282 60.4286 28.1257 61.4783 28.2378C63.1665 28.4231 64.8548 28.6327 66.5043 29.0569C66.5963 29.0813 66.6882 29.1203 66.7801 29.1495C66.872 29.1788 67.0026 29.1885 66.9978 29.3055C66.9929 29.4323 66.872 29.4762 66.7607 29.5249C66.3737 29.6907 65.9819 29.5883 65.5998 29.5542C64.9854 29.4908 64.3711 29.4128 63.7615 29.3348C62.9537 29.2324 62.141 29.2324 61.338 29.1105C61.0284 29.0618 60.7092 29.0813 60.3899 29.0569C59.2096 28.974 58.0244 28.8668 56.8392 28.8765C56.7812 28.8229 56.7231 28.818 56.6603 28.8716ZM37.509 16.537C37.5381 16.5029 37.5622 16.4736 37.5913 16.4395C37.6687 16.4053 37.7461 16.3712 37.7267 16.2542C37.6106 16.2445 37.5864 16.3322 37.5574 16.4102C37.5139 16.4395 37.4994 16.4785 37.5042 16.5321C37.48 16.537 37.451 16.537 37.4848 16.5711C37.4945 16.5614 37.4994 16.5467 37.509 16.537Z" fill="#E0A44C"/>
<path d="M8.45275 25.9588C10.2642 25.9494 12.0214 25.6035 13.754 25.1201C15.5704 24.6179 17.3227 23.9498 19.0404 23.1822C21.306 22.1634 23.463 20.9693 25.4423 19.5052C26.4196 18.7802 27.3525 17.9984 28.0337 16.9844C28.4335 16.3874 28.6704 15.7572 28.3743 15.0511C28.2163 14.6673 27.9054 14.4067 27.5746 14.1651C26.7059 13.5396 25.699 13.1795 24.6772 12.8668C23.3593 12.464 22.0069 12.1797 20.6692 11.8385C19.5981 11.5637 18.5369 11.251 17.5843 10.6776C16.9426 10.2938 16.4638 9.76789 16.3059 9.05713C16.1528 8.34164 16.2861 7.62615 16.5921 6.95805C17.0068 6.03881 17.6336 5.25224 18.3987 4.57466C19.2625 3.81178 20.225 3.1721 21.2517 2.62245C23.2458 1.55633 25.3584 0.783975 27.5845 0.291187C28.7149 0.0400546 29.86 -0.0594512 31.015 0.0353158C31.8689 0.106391 32.708 0.258019 33.3941 0.826621C33.9322 1.27676 34.179 1.8501 34.2283 2.51347C34.327 3.78335 33.789 4.85896 33.0387 5.83979C31.9627 7.24708 30.5658 8.30374 28.9468 9.0903C28.2805 9.41251 27.5697 9.63521 26.8392 9.7821C26.2765 9.89582 25.7039 9.89108 25.1412 9.68734C24.5143 9.4599 24.2034 8.90551 24.3515 8.26109C24.5736 7.31342 25.1462 6.60267 25.9359 6.03407C26.0445 5.95352 26.1975 5.84453 26.316 6.01985C26.4147 6.16674 26.4147 6.31363 26.2419 6.44156C26.0099 6.61688 25.778 6.79694 25.6397 7.05755C25.5114 7.29921 25.5756 7.40819 25.8569 7.43188C26.3505 7.46979 26.775 7.25182 27.1946 7.05281C28.8629 6.26624 30.3881 5.28067 31.6814 3.98236C32.0812 3.58434 32.4168 3.13893 32.6044 2.62245C32.8512 1.94013 32.6982 1.61319 31.8541 1.50894C30.2845 1.30993 28.8333 1.73638 27.4068 2.28129C25.467 3.02048 23.6456 3.97289 21.9427 5.13378C20.8716 5.85875 19.8548 6.64531 19.1292 7.72092C18.9565 7.97679 18.8331 8.25636 18.7738 8.55487C18.685 9.07135 18.9219 9.47885 19.3464 9.79632C19.9782 10.2654 20.7137 10.5308 21.459 10.7724C22.8509 11.2273 24.2873 11.54 25.6891 11.9617C26.8639 12.3124 28.009 12.7341 29.011 13.4448C30.2302 14.3025 30.8324 15.4586 30.7238 16.9086C30.6399 18.0126 30.1364 18.9698 29.4651 19.8511C28.5174 21.0925 27.3081 22.0639 26.0149 22.9547C24.618 23.9166 23.1175 24.7126 21.5676 25.4187C20.0621 26.1057 18.5073 26.6885 16.913 27.1671C15.8271 27.4941 14.7214 27.7736 13.6059 28.0011C12.905 28.1432 12.1991 28.2711 11.4982 28.3754C10.3827 28.5365 9.24744 28.5223 8.12204 28.5081C7.2928 28.4986 6.49811 28.328 5.74785 28.0058C4.95809 27.6646 4.2868 27.1671 4.08936 26.3047C3.94129 25.6651 3.96103 25.0254 4.27199 24.4094C4.88899 23.1822 5.89592 22.2819 6.91767 21.3768C7.89005 20.5145 8.94634 19.7611 10.0569 19.0787C11.9375 17.9226 13.9514 17.0223 16.0492 16.2926C17.5004 15.7903 18.9713 15.3639 20.4718 15.0132C20.6298 14.9753 20.8371 14.8853 20.9012 15.0985C20.9654 15.3212 20.7828 15.4492 20.5804 15.506C19.4254 15.833 18.2901 16.2168 17.1746 16.6622C16.0442 17.1123 14.9435 17.6241 13.8724 18.1927C12.599 18.8703 11.3798 19.6237 10.2396 20.486C8.92166 21.4858 7.68274 22.5614 6.77452 23.9403C6.61657 24.1819 6.48824 24.4331 6.39445 24.7032C6.12791 25.4803 6.4833 25.7314 7.18914 25.883C7.60376 25.9825 8.02826 25.9494 8.45275 25.9588Z" fill="#E0A44C"/>
<path d="M59.6239 16.5485C59.3695 16.597 59.2198 16.7618 59.0552 16.9073C57.524 18.2307 55.9478 19.496 54.3318 20.7176C53.399 21.4205 52.4464 22.0992 51.4488 22.71C51.0149 22.9766 50.561 23.2093 50.0771 23.3935C49.7879 23.505 49.5285 23.4517 49.304 23.2869C48.5209 22.7294 47.9723 21.9829 47.7329 21.0812C47.5932 20.5673 47.7528 20.0147 47.9324 19.5057C48.3763 18.2695 49.1045 17.1933 49.9275 16.1656C50.5959 15.3317 51.3191 14.5513 52.1022 13.8289C53.5237 12.5201 55.075 11.3711 56.7808 10.4258C57.8931 9.81017 59.0453 9.28661 60.2623 8.91818C61.5591 8.52551 62.8909 8.29282 64.2526 8.42371C64.9708 8.49158 65.6492 8.70973 66.2327 9.14603C67.0308 9.73745 67.2303 10.8573 66.7166 11.9092C66.6118 12.1274 66.4871 12.3407 66.3125 12.5152C66.2028 12.6219 66.143 12.6122 66.0781 12.4716C65.9784 12.2631 66.0582 12.0983 66.1679 11.9286C66.4322 11.5214 66.542 11.0851 66.4472 10.6003C66.3125 9.90712 65.9085 9.55324 65.1803 9.5193C64.0979 9.47083 63.0854 9.752 62.1078 10.1641C60.0329 11.0318 58.2223 12.2971 56.5713 13.7756C54.6759 15.4723 53.0798 17.4163 51.7181 19.5396C51.4388 19.9759 51.1745 20.4219 50.9849 20.9018C50.95 20.9891 50.8802 21.086 50.97 21.1733C51.0647 21.2605 51.1745 21.2121 51.2792 21.1684C52.0224 20.8533 52.7007 20.4267 53.3741 19.9904C55.5638 18.5846 57.6936 17.0963 59.7186 15.4772C60.5117 14.8421 61.2399 14.1344 61.9981 13.4654C62.5617 12.9709 63.1303 12.4861 63.7438 12.0547C64.1927 11.7347 64.4421 11.7396 64.8561 12.1032C65.3798 12.5685 65.7689 13.1163 65.9534 13.7902C65.9784 13.8774 66.0183 13.9501 65.9035 14.0132C65.2701 14.3719 64.8262 14.9294 64.3673 15.4578C63.4296 16.5437 62.5667 17.6877 61.8135 18.9094C61.4394 19.5153 61.0953 20.131 60.8758 20.8097C60.8509 20.8824 60.8209 20.9551 60.806 21.0327C60.7312 21.3575 60.786 21.3963 61.1202 21.3042C62.2574 20.9794 63.275 20.4267 64.2177 19.7383C64.3872 19.6172 64.5768 19.3796 64.8012 19.6365C65.0007 19.8692 64.8112 20.0438 64.6266 20.194C63.4146 21.2169 62.1976 22.2349 60.796 23.0154C60.377 23.2481 59.9281 23.3887 59.4593 23.476C59.2597 23.5147 59.0802 23.4032 58.9056 23.3111C58.2123 22.9427 57.7135 22.424 57.499 21.6629C57.3743 21.2314 57.5639 20.8533 57.6636 20.4655C57.9829 19.2536 58.5964 18.1677 59.2548 17.106C59.3844 16.917 59.5041 16.7327 59.6239 16.5485Z" fill="#E0A44C"/>
<path d="M13.9357 48.3797C14.8398 49.5843 15.7157 50.7553 16.601 51.9358C16.4833 52.0322 16.3561 51.9888 16.2431 51.9888C15.8099 51.9937 15.3766 51.984 14.9434 51.9937C14.7974 51.9985 14.6938 51.9455 14.6091 51.825C13.9215 50.8709 13.2293 49.9216 12.5371 48.9724C12.4335 48.8278 12.3157 48.7314 12.1179 48.7411C11.7883 48.7507 11.4587 48.7362 11.129 48.7218C10.9218 48.7122 10.8747 48.8037 10.8794 48.9965C10.8889 49.8927 10.8747 50.789 10.8889 51.6853C10.8936 51.9262 10.8182 52.0081 10.5828 51.9985C10.2626 51.9792 9.94233 51.9792 9.62211 51.9985C9.40079 52.0129 9.3584 51.9262 9.3584 51.719C9.36311 49.5313 9.36311 47.3437 9.36311 45.156C9.36311 44.6982 9.39608 44.2356 9.0994 43.8357C8.98638 43.6863 9.04289 43.6188 9.22184 43.6188C10.6911 43.6236 12.1603 43.5947 13.6296 43.6333C14.8822 43.6622 15.8946 44.7609 15.857 46.0233C15.824 47.0738 15.339 47.84 14.2841 48.2447C14.1805 48.2833 14.0769 48.3267 13.9357 48.3797ZM12.0803 44.7609C11.7035 44.7609 11.3927 44.7657 11.0819 44.7609C10.936 44.756 10.8842 44.809 10.8842 44.9632C10.8889 45.792 10.8889 46.6209 10.8842 47.4497C10.8842 47.6231 10.9548 47.6617 11.1055 47.6569C11.4257 47.6472 11.7459 47.6665 12.0661 47.652C12.5653 47.6231 13.0551 47.5653 13.5024 47.2955C14.0534 46.9678 14.3124 46.4763 14.2323 45.8884C14.1664 45.3921 13.7426 44.9681 13.1681 44.8235C12.7819 44.7175 12.3958 44.7849 12.0803 44.7609Z" fill="#E0A44C"/>
<path d="M50.5911 48.3842C51.5617 49.559 52.5324 50.7338 53.5602 51.9711C53.1293 51.9711 52.7712 51.9374 52.4182 51.9808C51.733 52.0674 51.2866 51.8652 50.8973 51.2971C50.3212 50.4545 49.61 49.689 48.9664 48.885C48.8833 48.7839 48.8055 48.7309 48.6653 48.7309C48.2812 48.7309 47.8971 48.7164 47.513 48.7116C47.2898 48.7068 47.1912 48.779 47.1964 49.0149C47.2119 49.9008 47.1964 50.7867 47.2067 51.6726C47.2119 51.9182 47.1237 51.9952 46.8642 51.9808C46.5527 51.9663 46.2413 51.976 45.9298 51.976C45.5198 51.976 45.5198 51.976 45.5198 51.61C45.5198 49.4146 45.5198 47.2191 45.5198 45.0284C45.5198 44.6192 45.5821 44.2051 45.2447 43.8633C45.1149 43.7285 45.1149 43.6129 45.3848 43.6129C46.9836 43.6177 48.5823 43.6081 50.181 43.6225C51.1517 43.6322 52.1846 44.2918 52.4961 45.0766C52.875 46.0443 52.7193 46.9254 51.9407 47.6813C51.6656 47.9461 51.3178 48.1146 50.944 48.2398C50.8298 48.2735 50.7001 48.2831 50.5911 48.3842ZM48.52 44.7492C48.1047 44.7492 47.7622 44.754 47.4196 44.7492C47.2587 44.7444 47.2016 44.8021 47.2016 44.9514C47.2068 45.7795 47.2068 46.6076 47.2016 47.4357C47.2016 47.6091 47.2846 47.6428 47.4455 47.6428C47.8089 47.638 48.1722 47.6524 48.5356 47.638C49.0858 47.6139 49.6256 47.5417 50.1135 47.2672C50.7157 46.9302 50.9804 46.4632 50.8921 45.8758C50.8143 45.3751 50.3523 44.961 49.7139 44.8118C49.2986 44.7058 48.8678 44.7732 48.52 44.7492Z" fill="#E0A44C"/>
<path d="M37.0848 48.1201C37.0848 46.9909 37.0747 45.8617 37.0898 44.7325C37.0949 44.4092 37.0293 44.1293 36.8324 43.8687C36.7011 43.695 36.7466 43.6129 36.9788 43.6129C39.0788 43.6177 41.1787 43.6177 43.2737 43.6129C43.4807 43.6129 43.5261 43.666 43.4352 43.8445C43.3494 44.0183 43.2535 44.192 43.2131 44.3802C43.1475 44.7228 42.9456 44.7759 42.6174 44.7663C41.416 44.747 40.2146 44.7663 39.0131 44.7518C38.7759 44.7518 38.7002 44.8097 38.7052 45.0413C38.7204 45.6397 38.7204 46.2381 38.7052 46.8365C38.7002 47.0392 38.7708 47.0971 38.9778 47.0971C40.3711 47.0874 41.7643 47.0923 43.1576 47.0923C43.516 47.0923 43.516 47.0923 43.3948 47.4156C43.092 48.2311 43.092 48.2311 42.2035 48.2311C41.1333 48.2311 40.0631 48.236 38.9929 48.2263C38.7658 48.2263 38.7002 48.289 38.7052 48.5014C38.7204 49.177 38.7204 49.8526 38.7052 50.5282C38.7002 50.7743 38.7557 50.8563 39.0333 50.8563C40.4165 50.8418 41.7997 50.8563 43.1828 50.8467C43.4504 50.8467 43.516 50.8901 43.4201 51.1459C43.1021 51.9904 43.1071 51.9952 42.153 51.9952C40.578 51.9952 39.003 51.9904 37.4281 52C37.1605 52 37.0696 51.9518 37.0747 51.6719C37.0949 50.4944 37.0848 49.3073 37.0848 48.1201Z" fill="#E0A44C"/>
<path d="M56.5579 49.7428C56.3417 50.2492 56.1255 50.7507 55.9183 51.2619C55.8462 51.4403 55.9678 51.5946 56.0219 51.7538C56.0624 51.8695 56.112 51.9901 55.9228 51.9901C55.4183 51.9901 54.9184 51.9901 54.4004 51.9901C54.4274 51.8213 54.4815 51.6959 54.54 51.5705C55.0085 50.5385 55.4769 49.5065 55.9363 48.4697C56.5354 47.1146 57.1254 45.7546 57.7335 44.4044C57.8281 44.1922 57.7425 44.0571 57.6614 43.9028C57.5623 43.7196 57.5443 43.6038 57.8056 43.6135C58.1839 43.6279 58.5623 43.6231 58.9406 43.6135C59.0848 43.6087 59.1703 43.6617 59.2334 43.8064C60.1432 45.8848 61.0621 47.9585 61.9764 50.0321C62.2287 50.606 62.4854 51.1799 62.7512 51.7441C62.8503 51.9563 62.8007 52.0045 62.5935 51.9997C62.2062 51.9901 61.8188 51.9949 61.4314 51.9997C61.3098 51.9997 61.2333 51.9611 61.1792 51.8406C60.8639 51.1413 60.5396 50.4469 60.2153 49.7524C60.2153 49.7187 60.2018 49.7042 60.1703 49.709C58.9812 49.709 57.7921 49.709 56.6029 49.7139C56.5849 49.7187 56.5714 49.7283 56.5579 49.7428ZM58.4001 45.5762C57.9542 46.56 57.5398 47.4762 57.1254 48.3877C57.0534 48.5468 57.1525 48.542 57.2515 48.542C57.684 48.542 58.1164 48.542 58.5488 48.542C58.9316 48.542 59.3145 48.542 59.7469 48.542C59.2965 47.5534 58.8641 46.6034 58.4001 45.5762Z" fill="#E0A44C"/>
<path d="M28.3499 43.7381C28.3593 43.6081 28.4534 43.6225 28.5381 43.6225C28.9805 43.6225 29.4229 43.6274 29.8652 43.6177C30.0394 43.6129 30.0817 43.6562 30.0017 43.8295C29.4558 45.0474 28.9193 46.2701 28.3781 47.4928C27.7757 48.855 27.1733 50.2125 26.5804 51.5796C26.458 51.8636 26.3215 52.0562 25.9827 51.984C25.8744 51.9599 25.7521 51.9599 25.6438 51.984C25.3191 52.061 25.2015 51.8492 25.0932 51.5989C24.7732 50.8576 24.4532 50.1162 24.1285 49.3798C23.7284 48.4651 23.3284 47.5553 22.9284 46.6456C22.6272 45.9668 22.326 45.2929 22.0248 44.6142C21.9119 44.3639 21.7989 44.1135 21.6813 43.8632C21.606 43.6996 21.6248 43.6129 21.8272 43.6129C22.2507 43.6177 22.6743 43.6177 23.0978 43.6129C23.2343 43.6129 23.2861 43.6707 23.3378 43.7958C23.9308 45.1292 24.5379 46.4578 25.1356 47.7912C25.385 48.3496 25.6391 48.9032 25.8933 49.4568C25.9168 49.5145 25.9262 49.6012 26.0109 49.5964C26.0721 49.5916 26.0862 49.5193 26.1097 49.4664C26.5051 48.6047 26.9004 47.7383 27.2957 46.8766C27.6345 46.1401 27.9404 45.394 28.3216 44.6816C28.4958 44.3542 28.491 44.0895 28.3452 43.7862C28.3546 43.7766 28.3499 43.7573 28.3499 43.7381Z" fill="#E0A44C"/>
<path d="M19.9547 47.813C19.9547 49.1053 19.9504 50.3927 19.959 51.685C19.959 51.9213 19.9033 52.0129 19.685 51.9984C19.4025 51.9791 19.12 51.9791 18.8375 51.9984C18.6235 52.0129 18.5636 51.9309 18.5679 51.6946C18.5764 49.4235 18.5679 47.1476 18.5764 44.8764C18.5764 44.51 18.5465 44.1773 18.3453 43.8735C18.2255 43.6951 18.2683 43.6083 18.478 43.6131C18.8975 43.6227 19.3169 43.6276 19.7364 43.6131C19.929 43.6083 19.9632 43.6951 19.959 43.8831C19.9547 45.1947 19.9547 46.5014 19.9547 47.813Z" fill="#E0A44C"/>
<path d="M34.2339 47.7944C34.2339 49.0575 34.2339 50.3205 34.2339 51.5787C34.2339 51.9933 34.2339 51.9933 33.6625 51.9933C33.29 51.9933 32.9176 51.9789 32.5452 51.9982C32.2434 52.0126 32.1471 51.9451 32.1535 51.7089C32.1727 50.6387 32.1599 49.5685 32.1599 48.5031C32.1599 47.2304 32.1471 45.9577 32.1663 44.6898C32.1727 44.3957 32.1021 44.145 31.8517 43.9233C31.7682 43.851 31.6783 43.7546 31.7425 43.663C31.8067 43.581 31.9544 43.6244 32.0636 43.6244C32.6672 43.6196 33.2708 43.634 33.8744 43.6196C34.1633 43.6099 34.2468 43.6774 34.2404 43.8944C34.2275 45.1912 34.2339 46.4928 34.2339 47.7944Z" fill="#E0A44C"/>
</g>
<defs>
<filter id="filter0_d" x="0" y="0" width="70.9997" height="60" filterUnits="userSpaceOnUse" color-interpolation-filters="sRGB">
<feFlood flood-opacity="0" result="BackgroundImageFix"/>
<feColorMatrix in="SourceAlpha" type="matrix" values="0 0 0 0 0 0 0 0 0 0 0 0 0 0 0 0 0 0 127 0"/>
<feOffset dy="4"/>
<feGaussianBlur stdDeviation="2"/>
<feColorMatrix type="matrix" values="0 0 0 0 0 0 0 0 0 0 0 0 0 0 0 0 0 0 0.25 0"/>
<feBlend mode="normal" in2="BackgroundImageFix" result="effect1_dropShadow"/>
<feBlend mode="normal" in="SourceGraphic" in2="effect1_dropShadow" result="shape"/>
</filter>
</defs>
</svg>
