<svg width="24" height="24" viewBox="0 0 24 24" fill="none" xmlns="http://www.w3.org/2000/svg">
<path opacity="0.3" fill-rule="evenodd" clip-rule="evenodd" d="M15.7876 19.5385C15.9672 19.9118 16.4153 20.0688 16.7886 19.8893C19.796 18.4426 21.7498 15.3972 21.7498 12C21.7498 8.6355 19.8334 5.61421 16.8702 4.1506C16.4989 3.96716 16.0491 4.11952 15.8656 4.4909C15.6822 4.86228 15.8346 5.31205 16.2059 5.49549C18.6621 6.70867 20.2498 9.21176 20.2498 12C20.2498 14.8153 18.6311 17.3384 16.1384 18.5375C15.7651 18.7171 15.6081 19.1653 15.7876 19.5385ZM15.2948 15.8597C15.4969 16.2212 15.9539 16.3504 16.3154 16.1482C17.806 15.3147 18.7499 13.7397 18.7499 12C18.7499 10.2732 17.82 8.70811 16.3468 7.86954C15.9868 7.66463 15.5289 7.79034 15.324 8.15032C15.1191 8.5103 15.2448 8.96823 15.6047 9.17314C16.614 9.74761 17.2499 10.8179 17.2499 12C17.2499 13.191 16.6044 14.268 15.5833 14.839C15.2218 15.0412 15.0926 15.4982 15.2948 15.8597Z" fill="#79A1BC"/>
<path fill-rule="evenodd" clip-rule="evenodd" d="M12.0009 5.41424C12.0009 4.52333 10.9238 4.07716 10.2938 4.70713L6.69325 8.30772H3.84766C2.74309 8.30772 1.84766 9.20316 1.84766 10.3077V13.6923C1.84766 14.7969 2.74309 15.6923 3.84766 15.6923H6.69327L10.2938 19.2929C10.9238 19.9229 12.0009 19.4767 12.0009 18.5858V5.41424Z" fill="#79A1BC"/>
</svg>
