<svg width="24" height="24" viewBox="0 0 24 24" fill="none" xmlns="http://www.w3.org/2000/svg">
<path opacity="0.3" d="M17.776 16.5218C17.4 16.72 16.9248 16.5933 16.7146 16.2388C16.5043 15.8843 16.6387 15.4363 17.0146 15.238C18.0765 14.6781 18.7477 13.622 18.7477 12.4543C18.7477 11.2951 18.0864 10.2457 17.0369 9.68239C16.6626 9.48147 16.5319 9.03245 16.745 8.67947C16.958 8.3265 17.4342 8.20323 17.8086 8.40415C19.3405 9.2264 20.3075 10.761 20.3075 12.4543C20.3075 14.1601 19.326 15.7044 17.776 16.5218Z" fill="#79A1BC"/>
<path fill-rule="evenodd" clip-rule="evenodd" d="M13.6109 5.73992C13.6109 4.84707 12.5298 4.40179 11.901 5.03567L8.65112 8.31187H5.69141C4.58684 8.31187 3.69141 9.2073 3.69141 10.3119V14.3119C3.69141 15.4164 4.58684 16.3119 5.69141 16.3119H8.65112L11.901 19.5881C12.5298 20.2219 13.6109 19.7767 13.6109 18.8838V5.73992Z" fill="#79A1BC"/>
</svg>
